<svg width="32" height="32" xmlns="http://www.w3.org/2000/svg">

 <g>
  <title>background</title>
  <rect fill="none" id="canvas_background" height="402" width="582" y="-1" x="-1"/>
 </g>
 <g>
  <title>Layer 1</title>
  <path id="svg_3" d="m16,24c-2.20557,0 -4,-1.81055 -4,-4.03564c0,-0.55225 -0.44775,-1 -1,-1s-1,0.44775 -1,1c0,3.32812 2.69141,6.03564 6,6.03564c0.55225,0 1,-0.44775 1,-1s-0.44775,-1 -1,-1z"/>
  <rect stroke="#000" id="svg_4" height="33.228215" width="32.834516" y="-0.085075" x="-0.003874" stroke-width="0" fill="#f54242"/>
  <path stroke="null" fill="#ffffff" id="svg_2" d="m24.47764,0.445998c-0.203,-0.18521 -0.531868,-0.18521 -0.734869,0c-0.197169,0.17988 -4.829435,4.451453 -4.829435,8.39544c0,2.614431 2.331233,4.741304 5.196869,4.741304c2.865382,0 5.196869,-2.126873 5.196869,-4.741304c0,-3.943987 -4.632017,-8.21556 -4.829435,-8.39544zm-0.367434,12.188483c-2.292407,0 -4.157496,-1.701592 -4.157496,-3.793043c0,-2.943174 3.079041,-6.287552 4.15775,-7.368469c1.078704,1.079993 4.157241,4.421128 4.157241,7.368469c0,2.091451 -1.865089,3.793043 -4.157496,3.793043z"/>
  <text transform="matrix(1,0,0,1,0,0) " font-weight="bold" xml:space="preserve" text-anchor="start" font-family="Oswald, sans-serif" font-size="24" id="svg_6" y="24.286445" x="-1.01454" stroke-opacity="null" stroke-width="0" stroke="null" fill="#ffffff">K</text>
  <text font-weight="bold" xml:space="preserve" text-anchor="start" font-family="Oswald, sans-serif" font-size="12" id="svg_7" y="24.245538" x="17.474913" stroke-opacity="null" stroke-width="0" stroke="#000" fill="#ffffff">24</text>
  <rect stroke="null" id="svg_8" height="0.866138" width="14.999941" y="14.127467" x="16.649605" stroke-opacity="null" stroke-width="null" fill="#ffffff"/>
 </g>
</svg>